<?xml version="1.0" encoding="UTF-8"?>
<svg id="Layer_2" data-name="Layer 2" xmlns="http://www.w3.org/2000/svg" viewBox="0 0 255.83 254.86">
  <defs>
    <style>
      .cls-1 {
        fill: #fbfdfa;
      }

      .cls-2 {
        fill: #16b24c;
      }
    </style>
  </defs>
  <g id="Layer_1-2" data-name="Layer 1">
    <g>
      <path class="cls-2" d="M255.83,113.5v28.87c-1.91,1.56-1.33,3.92-1.72,5.89-10.58,52.86-42.01,86.79-93.58,102.4-6.07,1.84-12.41,2.82-18.62,4.19h-28.98c-1.57-1.9-3.94-1.38-5.91-1.71C54.72,244.36,13.65,205.16,2.71,153.64c-.8-3.76-.47-7.84-2.71-11.27v-29.86c1.91-2.83,1.63-6.19,2.25-9.33C13.57,45.7,63.53,2.49,121.42,.12c60.67-2.49,113.46,35.48,129.73,93.42,1.85,6.58,3.14,13.31,4.68,19.97Zm-118.53,1.18c-4.17-8-6.6-15.69-8.37-23.56-.88-3.92-2.37-5.74-6.87-5.46-7.46,.47-14.98,.32-22.46,.05-3.6-.13-4.86,.67-4.78,4.56,.27,12.6,.05,25.2,.13,37.81,.03,4.89-1,9.52-3.05,13.91-5.88,12.62-23.27,14.41-31.74,3.28-3.42-4.49-5.18-9.62-5.22-15.23-.09-13.26-.13-26.53,.04-39.79,.04-3.3-.59-4.88-4.3-4.53-3.47,.32-7,.26-10.48,.01-3.22-.23-4.3,.79-4.25,4.13,.19,12.43,.05,24.87,.09,37.31,.02,4.66,.79,9.25,2.04,13.71,4.42,15.78,16.71,26.69,32.43,28.18,16.17,1.53,29-4.37,37.33-18.6,4.55-7.77,5.8-16.45,5.9-25.31,.09-7.28,.02-14.56,.02-21.84,4.63,11.74,9.18,23.21,16.07,33.55,2.03,3.05,2.34,5.9,1.72,9.31-2.64,14.63-5.21,29.28-7.65,43.94-1.45,8.67-1.32,8.69,7.67,8.69,9.98,0,9.86-.02,11.37-10.11,1.51-10.08,3.27-20.13,5.04-30.89,11.09,8.83,22.94,13.23,36.58,10.93,13.84-2.34,24.17-9.73,30.5-22.27,11.28-22.33,1.54-50.38-20.64-59.56-20.53-8.51-48.61-1.55-57.12,27.79Z"/>
      <path class="cls-1" d="M137.31,114.68c8.51-29.33,36.58-36.29,57.12-27.79,22.19,9.19,31.93,37.23,20.64,59.56-6.33,12.54-16.66,19.93-30.5,22.27-13.63,2.3-25.48-2.1-36.58-10.93-1.77,10.77-3.53,20.81-5.04,30.89-1.51,10.09-1.4,10.11-11.37,10.11-8.99,0-9.11-.02-7.67-8.69,2.44-14.66,5.02-29.31,7.65-43.94,.61-3.41,.31-6.26-1.72-9.31-6.89-10.34-11.44-21.81-16.07-33.55,0,7.28,.07,14.56-.02,21.84-.1,8.85-1.35,17.53-5.9,25.31-8.33,14.24-21.16,20.14-37.33,18.6-15.72-1.49-28.01-12.4-32.43-28.18-1.25-4.46-2.02-9.06-2.04-13.71-.04-12.44,.1-24.88-.09-37.31-.05-3.35,1.02-4.36,4.25-4.13,3.48,.24,7.01,.31,10.48-.01,3.71-.34,4.34,1.24,4.3,4.53-.17,13.26-.13,26.53-.04,39.79,.04,5.6,1.8,10.74,5.22,15.23,8.47,11.13,25.86,9.33,31.74-3.28,2.05-4.39,3.08-9.02,3.05-13.91-.07-12.6,.15-25.21-.13-37.81-.08-3.89,1.17-4.69,4.78-4.56,7.48,.27,15,.42,22.46-.05,4.5-.28,5.99,1.54,6.87,5.46,1.77,7.88,4.2,15.56,8.37,23.56Zm63.56,11.78c0-1.16,.06-2.33,0-3.48-.62-10.55-7.78-19.33-17.88-21.97-9.46-2.47-19.09,1.56-24.31,10.33-4.4,7.39-6.12,15.62-7.33,24.01-.16,1.1,.2,1.88,.71,2.77,5.64,9.85,20.81,16.44,31.42,13.62,10.96-2.91,17.45-12.31,17.4-25.28Z"/>
      <path class="cls-2" d="M200.86,126.47c.06,12.97-6.43,22.37-17.4,25.28-10.62,2.82-25.78-3.77-31.42-13.62-.51-.89-.87-1.67-.71-2.77,1.21-8.38,2.93-16.62,7.33-24.01,5.22-8.78,14.86-12.8,24.31-10.33,10.1,2.63,17.25,11.41,17.88,21.97,.07,1.16,0,2.32,0,3.48Z"/>
    </g>
  </g>
</svg>